<svg xmlns="http://www.w3.org/2000/svg" viewBox="0 0 488 488"><path d="M58.4 483.2c-6.4 6.4-16.8 6.4-24 0L4.8 453.6c-6.4-6.4-6.4-16.8 0-24L429.6 4.8c6.4-6.4 16.8-6.4 24 0l29.6 29.6c6.4 6.4 6.4 16.8 0 24L58.4 483.2z" fill="#bc8b4b"/><path d="M429.6 4.8L4.8 429.6c-6.4 6.4-6.4 16.8 0 24L15.2 464c6.4 6.4 16.8 6.4 24 0L464 39.2c6.4-6.4 6.4-16.8 0-24L453.6 4.8c-6.4-6.4-17.6-6.4-24 0z" fill="#ce9959"/><g fill="#7a5427"><circle cx="112.8" cy="356.8" r="8.8"/><circle cx="153.6" cy="316" r="8.8"/><circle cx="194.4" cy="275.2" r="8.8"/><path d="M244 234.4c0 4.8-4 8.8-8.8 8.8s-8.8-4-8.8-8.8 4-8.8 8.8-8.8c4.8-.8 8.8 3.2 8.8 8.8z"/><circle cx="276" cy="192.8" r="8.8"/><circle cx="316.8" cy="152" r="8.8"/><circle cx="358.4" cy="111.2" r="8.8"/><circle cx="399.2" cy="70.4" r="8.8"/></g><path d="M111.2 430.4l-53.6-53.6-52.8 52.8c-6.4 6.4-6.4 16.8 0 24l29.6 29.6c6.4 6.4 16.8 6.4 24 0l52.8-52.8z" fill="#a8773d"/><path d="M57.6 376.8L4.8 429.6c-6.4 6.4-6.4 16.8 0 24L15.2 464c6.4 6.4 16.8 6.4 24 0L92 411.2l-34.4-34.4z" fill="#bc8b4b"/><path d="M32.8 481.6L70.4 444c6.4-6.4 6.4-16.8 0-24l-2.4-3.2c-6.4-6.4-16.8-6.4-24 0L6.4 454.4l26.4 27.2z" fill="#593a1c"/><path d="M71.2 420l-3.2-3.2c-6.4-6.4-16.8-6.4-24 0L6.4 454.4l8.8 8.8c6.4 6.4 16.8 6.4 24 0l36-36c-.8-2.4-2.4-4.8-4-7.2z" fill="#382210"/></svg>